<?xml version="1.0" encoding="UTF-8"?>
<svg id="Layer_2" data-name="Layer 2" xmlns="http://www.w3.org/2000/svg" viewBox="0 0 995.11 239.12">
  <defs>
    <style>
      .cls-1 {
        fill: #fff;
      }

      .cls-2 {
        fill: #bfbfbf;
      }

      .cls-3 {
        fill: #7f7f7f;
      }
    </style>
  </defs>
  <g id="Logo_2_-_Dark" data-name="Logo 2 - Dark">
    <g id="Logo">
      <g id="AISA">
        <path id="A" class="cls-1" d="M508.54.58h-4.78l-46.97,101.46h5.37l13.65-29.71h55.26l-1.93-4.2h-51.41l28.43-61.87,43.98,95.78h5.36L508.54.58Z"/>
        <path id="I" class="cls-1" d="M575.21.58v101.46h4.93V.58h-4.93Z"/>
        <path id="S" class="cls-1" d="M674.86,63.99c-2.27-3.24-5.32-5.82-9.13-7.75-3.82-1.94-8-3.5-12.54-4.71-4.55-1.21-9.09-2.35-13.63-3.41-4.54-1.06-8.72-2.41-12.53-4.06-3.82-1.64-6.89-3.86-9.21-6.67-2.32-2.8-3.48-6.57-3.48-11.3,0-3.96,1.06-7.59,3.19-10.87,2.13-3.29,5.44-5.92,9.93-7.9,4.49-1.98,10.12-2.97,16.89-2.97,4.54,0,9.27.72,14.2,2.17s9.42,3.67,13.48,6.67l2.17-3.92c-3.76-2.8-8.33-5.04-13.69-6.73-5.37-1.7-10.8-2.54-16.31-2.54-8.02,0-14.59,1.23-19.71,3.69-5.12,2.47-8.89,5.68-11.31,9.64-2.41,3.97-3.62,8.22-3.62,12.76,0,5.31,1.13,9.64,3.41,12.97,2.26,3.33,5.31,5.94,9.13,7.83,3.81,1.88,8.02,3.43,12.61,4.64,4.59,1.21,9.13,2.34,13.62,3.4,4.5,1.07,8.65,2.42,12.47,4.06,3.81,1.65,6.88,3.87,9.2,6.67s3.48,6.52,3.48,11.16c0,3.96-1.09,7.56-3.26,10.8-2.18,3.23-5.53,5.82-10.07,7.75-4.55,1.94-10.35,2.9-17.4,2.9s-13.46-1.28-19.49-3.84c-6.04-2.56-10.71-5.68-13.99-9.35l-2.61,3.48c3.48,4.06,8.53,7.42,15.15,10.07,6.61,2.66,13.64,3.99,21.09,3.99,8.11,0,14.8-1.21,20.07-3.63,5.27-2.41,9.13-5.6,11.6-9.56,2.46-3.96,3.69-8.21,3.69-12.76,0-5.21-1.13-9.44-3.4-12.68Z"/>
        <path id="A-2" data-name="A" class="cls-1" d="M739.03.57h-4.79l-46.96,101.46h5.37l13.65-29.71h55.31l-1.93-4.2h-51.46l28.42-61.86,28.41,61.86h-.01l1.93,4.2.22.47,13.43,29.24h5.37L739.03.57Z"/>
      </g>
      <g id="GROUP">
        <path id="G" class="cls-1" d="M540.43,188.54h4.64v37.54c-4.45,4.35-9.76,7.61-15.94,9.77-6.19,2.18-12.71,3.27-19.57,3.27-7.53,0-14.51-1.29-20.94-3.85-6.43-2.55-12.03-6.16-16.82-10.81-4.78-4.64-8.48-10.06-11.08-16.3-2.61-6.23-3.92-13.02-3.92-20.36s1.31-14.14,3.92-20.36c2.6-6.23,6.3-11.67,11.08-16.3,4.79-4.64,10.39-8.24,16.82-10.81,6.43-2.55,13.4-3.83,20.94-3.83,7.06,0,13.68,1.11,19.86,3.33s11.45,5.55,15.8,10l-2.9,3.33c-4.64-4.43-9.66-7.58-15.08-9.41-5.41-1.84-11.25-2.76-17.54-2.76-6.86,0-13.2,1.18-19.06,3.54-5.84,2.37-10.94,5.68-15.28,9.93-4.35,4.26-7.71,9.21-10.07,14.85-2.37,5.65-3.56,11.83-3.56,18.48s1.19,12.83,3.56,18.48c2.37,5.65,5.73,10.61,10.07,14.85,4.35,4.26,9.44,7.56,15.28,9.93,5.86,2.37,12.2,3.56,19.06,3.56,6.19,0,12.05-.95,17.62-2.83,4.82-1.65,9.2-4.22,13.12-7.72v-35.55Z"/>
        <path id="R" class="cls-1" d="M630.39,202.49c2.03-.56,3.95-1.26,5.77-2.07,6.03-2.71,10.65-6.57,13.84-11.59,3.18-5.03,4.78-11.07,4.78-18.13,0-10.62-3.55-18.88-10.65-24.78-7.11-5.89-16.98-8.84-29.64-8.84h-35.23v101.46h4.94v-96.97h30.58c11.39,0,20.12,2.54,26.16,7.62,6.03,5.07,9.06,12.24,9.06,21.51s-3.03,16.48-9.06,21.6c-6.04,5.12-14.77,7.69-26.16,7.69h-25.65v4.49h25.36c3.93,0,7.62-.28,11.04-.89l25.04,34.95h5.81l-25.99-36.05Z"/>
        <path id="O" class="cls-1" d="M773.85,167.37c-2.66-6.18-6.34-11.59-11.02-16.23-4.69-4.64-10.22-8.24-16.6-10.8-6.37-2.56-13.28-3.84-20.72-3.84s-14.5,1.28-20.88,3.84c-6.37,2.56-11.93,6.16-16.66,10.8-4.74,4.64-8.41,10.07-11.02,16.3-2.61,6.24-3.91,13.03-3.91,20.37s1.3,14.13,3.91,20.36c2.61,6.24,6.28,11.67,11.02,16.31,4.73,4.64,10.29,8.24,16.66,10.8,6.38,2.56,13.29,3.84,20.73,3.84s14.5-1.28,20.87-3.84c6.38-2.56,11.91-6.16,16.6-10.8,4.68-4.64,8.36-10.07,11.02-16.31,2.65-6.23,3.98-13.02,3.98-20.36s-1.33-14.25-3.98-20.44ZM769.35,206.43c-2.37,5.66-5.7,10.61-10,14.86s-9.35,7.54-15.15,9.86c-5.79,2.32-12.08,3.48-18.84,3.48s-12.9-1.16-18.7-3.48c-5.79-2.32-10.84-5.61-15.14-9.86s-7.64-9.2-10.01-14.86c-2.36-5.65-3.55-11.86-3.55-18.62s1.19-12.85,3.55-18.55c2.37-5.71,5.71-10.68,10.01-14.93s9.35-7.54,15.14-9.86c5.8-2.32,12.03-3.48,18.7-3.48s13.05,1.16,18.84,3.48c5.8,2.32,10.85,5.61,15.15,9.86s7.63,9.2,10,14.85c2.37,5.66,3.55,11.87,3.55,18.63s-1.18,12.97-3.55,18.62Z"/>
        <path id="U" class="cls-1" d="M878.57,137.08v58.56c0,13.14-3.05,22.92-9.14,29.35-6.08,6.42-14.69,9.64-25.8,9.64s-19.71-3.22-25.8-9.64c-6.08-6.43-9.13-16.21-9.13-29.35v-58.56h-4.93v58.7c0,14.4,3.56,25.22,10.66,32.47,7.1,7.24,16.83,10.87,29.2,10.87s21.96-3.63,29.07-10.87c7.1-7.25,10.65-18.07,10.65-32.47v-58.7h-4.78Z"/>
        <path id="P" class="cls-1" d="M990.33,152.66c-3.2-4.98-7.81-8.81-13.85-11.52-6.04-2.7-13.26-4.06-21.67-4.06h-35.22v101.46h4.92v-96.97h30.59c11.41,0,20.12,2.54,26.16,7.62,6.04,5.07,9.07,12.24,9.07,21.51s-3.03,16.48-9.07,21.6c-6.04,5.12-14.75,7.69-26.16,7.69h-25.65v4.49h25.36c8.41,0,15.63-1.35,21.67-4.06,6.04-2.71,10.65-6.57,13.85-11.59,3.18-5.03,4.78-11.07,4.78-18.13s-1.6-13.06-4.78-18.04Z"/>
      </g>
      <g id="_3_RINGS_-_thicc" data-name="3 RINGS - thicc">
        <path class="cls-3" d="M264.66,239.12c-65.93,0-119.56-53.64-119.56-119.56S198.74,0,264.66,0s119.56,53.64,119.56,119.56-53.64,119.56-119.56,119.56ZM264.66,6.02c-62.61,0-113.54,50.94-113.54,113.54s50.94,113.54,113.54,113.54,113.54-50.94,113.54-113.54S327.27,6.02,264.66,6.02Z"/>
        <path class="cls-2" d="M187.29,239.12c-65.93,0-119.56-53.64-119.56-119.56S121.37,0,187.29,0s119.56,53.64,119.56,119.56-53.64,119.56-119.56,119.56ZM187.29,6.02c-62.61,0-113.54,50.94-113.54,113.54s50.94,113.54,113.54,113.54,113.54-50.94,113.54-113.54S249.9,6.02,187.29,6.02Z"/>
        <path class="cls-1" d="M0,80.71c.59-1.48,2.1-5.72,2.67-7.18.19-.56.7-1.81.98-2.36.7-1.41,2.54-5.57,3.23-6.97,1.1-2.05,3.27-5.77,4.41-7.81.54-.87,1.61-2.35,2.14-3.19C46.77,2.08,116.28-14.24,169.15,16.15c88.47,50.85,77.02,180.78-18.94,215.48-50.39,17.75-107.43-.96-136.78-45.71-.49-.75-1.68-2.48-2.14-3.19-1.14-2.04-3.3-5.77-4.41-7.81-.99-2.08-2.77-6.03-3.76-8.13-.27-.73-1.05-2.83-1.34-3.59,0,0-1.78-4.78-1.78-4.78l1.99,4.7c.31.75,1.18,2.78,1.49,3.52.39.82,2.49,4.77,2.93,5.65,0,0,1.17,2.26,1.17,2.26l1.34,2.16c.42.76,2.93,4.73,3.32,5.41,1.35,1.91,3.83,5.28,5.2,7.2,44.47,57.45,133.11,59.76,179.41,3.51,26-30.46,33.64-74.74,19.82-112.26C185.3-4.44,73.32-21.17,17.43,49.81c-1.45,1.94-3.8,5.3-5.2,7.2-1.19,1.99-3.46,5.61-4.66,7.58-1.08,2.01-3.02,5.88-4.09,7.91-.86,2.08-2.59,6.09-3.48,8.22h0Z"/>
      </g>
    </g>
  </g>
</svg>